<svg viewBox="0 0 32 32" data-name="Layer 1" id="Layer_1" xmlns="http://www.w3.org/2000/svg" fill="#000000" >
<g id="SVGRepo_iconCarrier">
    <defs>
        <style>.cls-1{fill:#838383;}</style>
    </defs>
    <path class="cls-1" d="M24 22 L28 22 C28.53 22 29.039 22.211 29.414 22.586 29.789 22.961 30 23.47 30 24 L30 28 C30 28.53 29.789 29.039 29.414 29.414 29.039 29.789 28.53 30 28 30 L24 30 C23.47 30 22.961 29.789 22.586 29.414 22.211 29.039 22 28.53 22 28 L22 24 C22 23.47 22.211 22.961 22.586 22.586 22.961 22.211 23.47 22 24 22 Z M24 28 L28 28 28 24 24 24 Z"/>
    <path class="cls-1" d="M14 12 L18 12 C18.53 12 19.039 12.211 19.414 12.586 19.789 12.961 20 13.47 20 14 L20 28 C20 28.53 19.789 29.039 19.414 29.414 19.039 29.789 18.53 30 18 30 L14 30 C13.47 30 12.961 29.789 12.586 29.414 12.211 29.039 12 28.53 12 28 L12 14 C12 13.47 12.211 12.961 12.586 12.586 12.961 12.211 13.47 12 14 12 Z M14 28 L18 28 18 14 14 14 Z"/>
    <path class="cls-1" d="M4 2 L8 2 C8.53 2 9.039 2.211 9.414 2.586 9.789 2.961 10 3.47 10 4 L10 28 C10 28.53 9.789 29.039 9.414 29.414 9.039 29.789 8.53 30 8 30 L4 30 C3.47 30 2.961 29.789 2.586 29.414 2.211 29.039 2 28.53 2 28 L2 4 C2 3.47 2.211 2.961 2.586 2.586 2.961 2.211 3.47 2 4 2 Z M4 28 L8 28 8 4 4 4 Z"/>
</g>
</svg>