<?xml version="1.0" standalone="no"?>
<!DOCTYPE svg PUBLIC "-//W3C//DTD SVG 20010904//EN"
 "http://www.w3.org/TR/2001/REC-SVG-20010904/DTD/svg10.dtd">
<svg version="1.0" xmlns="http://www.w3.org/2000/svg"
 width="700.000000pt" height="700.000000pt" viewBox="0 0 700.000000 700.000000"
 preserveAspectRatio="xMidYMid meet">
<metadata>
Created by potrace 1.14, written by Peter Selinger 2001-2017
</metadata>
<g transform="translate(0.000000,700.000000) scale(0.100000,-0.100000)"
fill="#000000" stroke="none">
<path d="M6067 6408 c-56 -10 -133 -55 -162 -94 -11 -15 -25 -32 -30 -38 -10
-10 -626 -797 -1156 -1476 -257 -328 -485 -619 -502 -640 -7 -8 -26 -33 -42
-55 -16 -22 -32 -42 -35 -45 -3 -3 -62 -77 -130 -165 -69 -88 -130 -167 -137
-175 -7 -8 -42 -53 -79 -100 -91 -117 -100 -128 -210 -268 -92 -117 -97 -122
-113 -105 -9 10 -34 39 -56 63 -22 25 -62 72 -90 104 -27 32 -59 68 -70 80
-11 12 -47 53 -80 91 -72 83 -138 158 -145 165 -3 3 -30 34 -60 70 -30 36 -58
67 -61 70 -3 3 -26 28 -50 56 -198 227 -197 226 -259 257 -34 17 -63 22 -120
22 -101 0 -174 -35 -229 -108 -49 -66 -61 -104 -61 -186 0 -52 6 -77 28 -118
20 -40 240 -301 417 -497 6 -6 39 -45 75 -86 36 -41 67 -77 70 -80 3 -3 98
-111 212 -241 203 -233 227 -257 300 -297 113 -64 283 -64 403 0 95 51 69 20
700 828 170 217 327 418 349 446 23 28 53 66 68 85 132 170 549 703 570 730
52 65 240 304 266 339 36 47 180 231 195 250 7 8 69 87 137 175 69 88 130 167
137 175 7 8 35 44 63 80 28 36 57 72 64 81 63 77 139 184 153 216 24 58 21
166 -7 227 -56 123 -187 189 -323 164z"/>
<path d="M1515 6119 c-164 -22 -301 -88 -417 -201 -119 -117 -192 -258 -216
-418 -9 -67 -8 -3917 2 -3980 18 -113 58 -224 119 -327 70 -117 274 -262 407
-287 8 -2 31 -6 50 -10 19 -3 46 -9 60 -12 14 -4 891 -7 1950 -8 1996 -2 2007
-2 2146 39 110 32 217 96 297 179 52 53 127 157 127 176 0 6 6 21 14 33 20 30
54 158 62 237 4 36 8 497 9 1025 1 718 -2 972 -11 1007 -22 85 -72 147 -154
190 -63 33 -185 33 -251 0 -59 -29 -111 -81 -141 -141 l-23 -46 -2 -975 c-1
-536 -5 -994 -8 -1017 -8 -59 -44 -98 -101 -112 -34 -9 -529 -12 -1930 -12
-1035 0 -1900 3 -1921 7 -60 10 -98 45 -113 101 -9 37 -12 489 -11 1955 0
2124 -7 1943 69 1993 l38 25 1284 1 c1243 0 1287 1 1335 19 155 60 231 238
165 388 -37 83 -115 148 -200 168 -42 9 -2563 12 -2635 3z"/>
</g>
</svg>
